# xmcd
#
# Track frame offsets:
#	150
#	17747
#	30912
#	48565
#	65037
#	79065
#	100380
#	109735
#	123770
#	139985
#	156632
#
# Disc length: 2291 seconds
#
# Revision: 0
# Processed by: cddbd v1.4PL0 Copyright (c) Steve Scherf et al.
# Submitted via: EasyCDDAExtractor 4.6.9.1
#
DISCID=9408f10b
DTITLE=J. Teixi Band - Buenas noticias
DYEAR=1900
DGENRE=
TTITLE0=Tienes las llaves
TTITLE1=Solo calor
TTITLE2=No quiero escapar
TTITLE3=Ya no soy yo
TTITLE4=Lo malo.Malo es
TTITLE5=Si hay alguna duda
TTITLE6=Buenos acordes
TTITLE7=Soy un loco
TTITLE8=Es la reina
TTITLE9=Volviendo a casa
TTITLE10=Pierdes el tiempo
EXTD=
EXTT0=
EXTT1=
EXTT2=
EXTT3=
EXTT4=
EXTT5=
EXTT6=
EXTT7=
EXTT8=
EXTT9=
EXTT10=
PLAYORDER=
